<svg xmlns="http://www.w3.org/2000/svg" width="84" height="84" viewBox="0 0 84 84" shape-rendering="crispEdges">
  <defs><linearGradient id="a" x1="0" y1="0" x2="0.35" y2="1"><stop offset="0" stop-color="#ffc83c"/><stop offset="1" stop-color="#f3a017"/></linearGradient></defs>
  <rect width="84" height="84" rx="16" fill="url(#a)"/>
  <g fill="#241405" transform="translate(12,12)"><rect x="5" y="5" width="5" height="5"/><rect x="0" y="10" width="5" height="5"/><rect x="0" y="15" width="5" height="5"/><rect x="40" y="15" width="5" height="5"/><rect x="0" y="20" width="5" height="5"/><rect x="15" y="20" width="5" height="5"/><rect x="45" y="20" width="5" height="5"/><rect x="0" y="25" width="5" height="5"/><rect x="10" y="25" width="5" height="5"/><rect x="15" y="25" width="5" height="5"/><rect x="20" y="25" width="5" height="5"/><rect x="25" y="25" width="5" height="5"/><rect x="30" y="25" width="5" height="5"/><rect x="35" y="25" width="5" height="5"/><rect x="40" y="25" width="5" height="5"/><rect x="45" y="25" width="5" height="5"/><rect x="50" y="25" width="5" height="5"/><rect x="55" y="25" width="5" height="5"/><rect x="0" y="30" width="5" height="5"/><rect x="15" y="30" width="5" height="5"/><rect x="45" y="30" width="5" height="5"/><rect x="0" y="35" width="5" height="5"/><rect x="40" y="35" width="5" height="5"/><rect x="0" y="40" width="5" height="5"/><rect x="5" y="45" width="5" height="5"/></g>
</svg>
